<?xml version="1.0" encoding="UTF-8"?>
<svg version="1.1" xmlns="http://www.w3.org/2000/svg" width="201" height="256">
<path d="M0 0 C2.35358251 2.35358251 2.27871904 2.92968394 2.4140625 6.1328125 C2.45273438 6.93847656 2.49140625 7.74414062 2.53125 8.57421875 C2.57765625 9.83685547 2.57765625 9.83685547 2.625 11.125 C2.66367188 11.97449219 2.70234375 12.82398438 2.7421875 13.69921875 C2.83656494 15.79911684 2.91937586 17.89952891 3 20 C4.45853394 19.68192383 4.45853394 19.68192383 5.9465332 19.35742188 C9.60265963 18.56326806 13.2618679 17.78417674 16.92211914 17.00927734 C18.49687261 16.6737717 20.07079726 16.3343483 21.64379883 15.99072266 C44.68260801 10.96540529 44.68260801 10.96540529 50.60160828 14.59559631 C53.79392543 17.79591553 53.63280644 19.51447316 53.64697266 23.98413086 C53.65573425 24.67894058 53.66449585 25.37375031 53.67352295 26.08961487 C53.69549486 28.38199685 53.68097318 30.67244283 53.6640625 32.96484375 C53.66743172 34.56141021 53.67228523 36.15797417 53.67855835 37.75453186 C53.68592691 41.09954261 53.67522704 44.44388534 53.65185547 47.78881836 C53.62338971 52.07098391 53.63975617 56.35158112 53.66971779 60.63368893 C53.68781159 63.93066662 53.68202304 67.22727436 53.66907883 70.52426338 C53.66574931 72.10267893 53.66981596 73.68112834 53.68147659 75.25950432 C53.69421845 77.46939485 53.67476707 79.6767708 53.64697266 81.88647461 C53.64299469 83.142379 53.63901672 84.39828339 53.63491821 85.69224548 C52.82937621 89.88890441 51.2583003 91.32604968 48 94 C43.30348017 96.85009575 38.53734666 98.00296612 33.234375 99.15625 C32.40093567 99.34465454 31.56749634 99.53305908 30.70880127 99.72717285 C28.05745612 100.32547785 25.40395645 100.91339693 22.75 101.5 C16.15917796 102.96852169 9.57448907 104.45993266 3 106 C1.89205078 106.25523438 0.78410156 106.51046875 -0.35742188 106.7734375 C-1.24494141 107.00289063 -2.13246094 107.23234375 -3.046875 107.46875 C-3.76198242 107.64857422 -4.47708984 107.82839844 -5.21386719 108.01367188 C-7.85906898 109.4743902 -8.65075153 111.32755485 -10 114 C-10.40914715 116.69798534 -10.40914715 116.69798534 -10.29296875 119.56542969 C-10.28305908 120.65716492 -10.27314941 121.74890015 -10.26293945 122.87371826 C-10.22559692 124.63005585 -10.22559692 124.63005585 -10.1875 126.421875 C-10.17614014 127.63643372 -10.16478027 128.85099243 -10.15307617 130.10235596 C-10.10411406 135.29192341 -10.01992051 140.48077864 -9.93847656 145.66992188 C-9.88402815 149.46220587 -9.84786016 153.25437252 -9.8125 157.046875 C-9.77515747 158.7910672 -9.77515747 158.7910672 -9.73706055 160.57049561 C-9.6707909 167.95565549 -10.03989069 175.00678323 -14.578125 181.12890625 C-15.12984375 181.60199219 -15.6815625 182.07507813 -16.25 182.5625 C-18.6352886 184.68182408 -20.76796586 186.83225915 -22.8046875 189.28515625 C-28.76975161 196.17908872 -35.4000555 202.46606221 -41.875 208.875 C-44.52108606 211.4945367 -47.16386413 214.11734671 -49.8046875 216.7421875 C-50.41190643 217.34110809 -51.01912537 217.94002869 -51.64474487 218.55709839 C-54.69815344 221.49131176 -54.69815344 221.49131176 -57 225 C-57.66 225 -58.32 225 -59 225 C-59 225.66 -59 226.32 -59 227 C-59.66 227 -60.32 227 -61 227 C-61 227.66 -61 228.32 -61 229 C-61.66 229 -62.32 229 -63 229 C-63.22510254 229.54817383 -63.45020508 230.09634766 -63.68212891 230.66113281 C-65.38732438 233.68739674 -67.65504766 235.979719 -70.0859375 238.421875 C-70.58412994 238.92672424 -71.08232239 239.43157349 -71.59561157 239.95172119 C-72.64703771 241.01324237 -73.70116572 242.07209334 -74.7578125 243.12841797 C-76.3731511 244.74814607 -77.97181176 246.3832049 -79.5703125 248.01953125 C-80.59537222 249.05045646 -81.62138232 250.08043775 -82.6484375 251.109375 C-83.12461517 251.59992371 -83.60079285 252.09047241 -84.09140015 252.59588623 C-87.03742123 255.50195395 -87.64796015 256 -92 256 C-92 206.5 -92 157 -92 106 C-96.95 107.32 -101.9 108.64 -107 110 C-112.56572093 111.43251139 -118.1397674 112.82705544 -123.7199707 114.2019043 C-125.38563968 114.61407785 -127.05033836 115.03018972 -128.71411133 115.44995117 C-131.15493823 116.06543107 -133.59847883 116.66878831 -136.04296875 117.26953125 C-136.78459763 117.45900833 -137.5262265 117.64848541 -138.29032898 117.84370422 C-142.12339014 118.77061465 -144.07890805 118.98027299 -148 118 C-148 88.63 -148 59.26 -148 29 C-142.20814426 27.06938142 -136.90790417 25.41252214 -130.99047852 24.30175781 C-130.24398544 24.15650665 -129.49749237 24.01125549 -128.7283783 23.86160278 C-126.27960027 23.38650333 -123.82929058 22.91986205 -121.37890625 22.453125 C-119.63464714 22.11604444 -117.89050369 21.7783649 -116.14646912 21.44012451 C-111.54921718 20.54990228 -106.95067522 19.66654326 -102.35174561 18.78503418 C-95.10712825 17.39536885 -87.86433344 15.99621958 -80.62171555 14.59617615 C-78.8340711 14.25065958 -77.04637418 13.90541445 -75.25862503 13.56044006 C-61.59354011 10.92207476 -47.95151471 8.18525089 -34.32948303 5.33282471 C-30.55500057 4.54489666 -26.77866284 3.76762683 -23 3 C-22.30631947 2.85881241 -21.61263893 2.71762482 -20.89793777 2.57215881 C-18.75969745 2.14076564 -16.61964113 1.71982751 -14.47875977 1.30175781 C-13.21338882 1.05194153 -11.94801788 0.80212524 -10.64430237 0.54473877 C-7.00534853 0.00079948 -3.67190006 -0.23997282 0 0 Z " fill="#CE4F35" transform="translate(148,0)"/>
<path d="M0 0 C3.19905687 3.19883346 3.03626893 4.91449591 3.05044556 9.38743591 C3.05920715 10.08224564 3.06796875 10.77705536 3.07699585 11.49291992 C3.09896776 13.78530191 3.08444608 16.07574788 3.0675354 18.3681488 C3.07090462 19.96471526 3.07575813 21.56127922 3.08203125 23.15783691 C3.08939981 26.50284766 3.07869994 29.84719039 3.05532837 33.19212341 C3.02686261 37.47428897 3.04322907 41.75488618 3.07319069 46.03699398 C3.09128449 49.33397168 3.08549594 52.63057941 3.07255173 55.92756844 C3.06922221 57.50598398 3.07328886 59.08443339 3.08494949 60.66280937 C3.09769135 62.87269991 3.07823997 65.08007586 3.05044556 67.28977966 C3.04646759 68.54568405 3.04248962 69.80158844 3.03839111 71.09555054 C2.23284911 75.29220946 0.6617732 76.72935473 -2.5965271 79.40330505 C-7.29304693 82.2534008 -12.05918044 83.40627117 -17.3621521 84.55955505 C-18.19559143 84.74795959 -19.02903076 84.93636414 -19.88772583 85.13047791 C-22.53907098 85.7287829 -25.19257065 86.31670198 -27.8465271 86.90330505 C-34.43734914 88.37182674 -41.02203803 89.86323771 -47.5965271 91.40330505 C-48.70447632 91.65853943 -49.81242554 91.9137738 -50.95394897 92.17674255 C-51.84146851 92.40619568 -52.72898804 92.6356488 -53.6434021 92.87205505 C-54.35850952 93.05187927 -55.07361694 93.23170349 -55.81039429 93.41697693 C-58.68159599 95.00249564 -59.33771972 96.33485743 -60.5965271 99.40330505 C-61.06371607 103.28249445 -61.08535435 107.14385188 -61.10824585 111.0478363 C-61.13517265 112.73522163 -61.13517265 112.73522163 -61.16264343 114.45669556 C-61.21674426 118.04302748 -61.25064235 121.6292263 -61.2840271 125.21580505 C-61.31720027 127.65006836 -61.35168992 130.08431411 -61.38754272 132.51853943 C-61.47247073 138.48000862 -61.54082176 144.44149504 -61.5965271 150.40330505 C-64.44560442 149.01036938 -66.95551319 147.52141777 -69.5105896 145.63768005 C-70.6387207 144.80756409 -70.6387207 144.80756409 -71.78964233 143.9606781 C-72.59216431 143.364245 -73.39468628 142.76781189 -74.2215271 142.15330505 C-75.47655029 141.2248175 -75.47655029 141.2248175 -76.75692749 140.27757263 C-84.10593043 134.81703239 -91.33189054 129.20547842 -98.5418396 123.5634613 C-102.7133733 120.30258745 -106.9412939 117.12239591 -111.18637085 113.95799255 C-115.96939322 110.38462554 -120.71917374 106.76728982 -125.4715271 103.15330505 C-126.82854736 102.12390808 -126.82854736 102.12390808 -128.21298218 101.07371521 C-132.76169483 97.61153373 -137.24393637 94.10947142 -141.5965271 90.40330505 C-138.24990694 88.17222495 -135.64759219 87.52465457 -131.74520874 86.57151794 C-131.05203552 86.4004805 -130.3588623 86.22944305 -129.64468384 86.05322266 C-127.35002438 85.48850429 -125.05340372 84.93223305 -122.75668335 84.3759613 C-121.15291152 83.98296847 -119.54927058 83.58944116 -117.945755 83.19540405 C-113.71509354 82.15727493 -109.48273337 81.1262439 -105.24996948 80.09672546 C-100.98362743 79.05782846 -96.71883189 78.01262603 -92.45394897 76.96775818 C-87.63950488 75.78857413 -82.82491624 74.61001276 -78.00914001 73.4362793 C-77.27384284 73.25697593 -76.53854567 73.07767256 -75.78096676 72.89293575 C-74.35631725 72.54576941 -72.93153982 72.19912748 -71.50662327 71.85305882 C-66.32822906 70.59244782 -61.16670944 69.27212243 -56.01325989 67.91329956 C-53.5965271 67.40330505 -53.5965271 67.40330505 -49.5965271 67.40330505 C-49.5965271 47.27330505 -49.5965271 27.14330505 -49.5965271 6.40330505 C-6.93211387 -4.26279825 -6.93211387 -4.26279825 0 0 Z " fill="#E9DE5E" transform="translate(198.59652709960938,14.596694946289063)"/>
<path d="M0 0 C2 2 2 2 2.22705078 3.97119141 C2.21134033 5.1494751 2.21134033 5.1494751 2.1953125 6.3515625 C2.18564453 7.62773437 2.18564453 7.62773437 2.17578125 8.9296875 C2.15064453 10.26386719 2.15064453 10.26386719 2.125 11.625 C2.11597656 12.5221875 2.10695312 13.419375 2.09765625 14.34375 C2.07404956 16.56277911 2.03942593 18.78121219 2 21 C-5.65235149 23.84728582 -13.4541748 25.44165462 -21.44211197 27.00343323 C-23.86549318 27.47759002 -26.28723855 27.9594263 -28.70870972 28.4432373 C-34.71759129 29.6424203 -40.7286254 30.83063282 -46.74035645 32.01544189 C-51.83658822 33.01983745 -56.93154663 34.03024475 -62.02483749 35.04945374 C-64.4005191 35.52233386 -66.77783122 35.98629677 -69.15530396 36.45007324 C-70.62202337 36.74293047 -72.08865222 37.03624172 -73.55517578 37.33007812 C-74.82708771 37.58084106 -76.09899963 37.831604 -77.40945435 38.08996582 C-82.07602578 39.27272185 -86.33677471 40.41999907 -89.91047668 43.81488037 C-91.32606624 46.65394997 -91.39906558 48.79104369 -91.43237305 51.96191406 C-91.45216721 53.16285706 -91.47196136 54.36380005 -91.49235535 55.60113525 C-91.49874527 56.89291687 -91.50513519 58.18469849 -91.51171875 59.515625 C-91.52857008 60.85513961 -91.54672094 62.19463846 -91.56611633 63.53411865 C-91.61357396 67.05215527 -91.64341028 70.57012795 -91.66955566 74.08837891 C-91.69938289 77.68144355 -91.7459057 81.27428797 -91.79101562 84.8671875 C-91.87700011 91.9113322 -91.94436678 98.95554492 -92 106 C-102.543734 108.85491571 -113.11373693 111.58874353 -123.7199707 114.2019043 C-125.38563968 114.61407785 -127.05033836 115.03018972 -128.71411133 115.44995117 C-131.15493823 116.06543107 -133.59847883 116.66878831 -136.04296875 117.26953125 C-136.78459763 117.45900833 -137.5262265 117.64848541 -138.29032898 117.84370422 C-142.12339014 118.77061465 -144.07890805 118.98027299 -148 118 C-148 88.63 -148 59.26 -148 29 C-142.20814426 27.06938142 -136.90790417 25.41252214 -130.99047852 24.30175781 C-130.24398544 24.15650665 -129.49749237 24.01125549 -128.7283783 23.86160278 C-126.27960027 23.38650333 -123.82929058 22.91986205 -121.37890625 22.453125 C-119.63464714 22.11604444 -117.89050369 21.7783649 -116.14646912 21.44012451 C-111.54921718 20.54990228 -106.95067522 19.66654326 -102.35174561 18.78503418 C-95.10712825 17.39536885 -87.86433344 15.99621958 -80.62171555 14.59617615 C-78.8340711 14.25065958 -77.04637418 13.90541445 -75.25862503 13.56044006 C-61.59354011 10.92207476 -47.95151471 8.18525089 -34.32948303 5.33282471 C-30.55500057 4.54489666 -26.77866284 3.76762683 -23 3 C-22.30631947 2.85881241 -21.61263893 2.71762482 -20.89793777 2.57215881 C-18.75969745 2.14076564 -16.61964113 1.71982751 -14.47875977 1.30175781 C-13.21338882 1.05194153 -11.94801788 0.80212524 -10.64430237 0.54473877 C-7.00534853 0.00079948 -3.67190006 -0.23997282 0 0 Z " fill="#D53A34" transform="translate(148,0)"/>
<path d="M0 0 C0 19.8 0 39.6 0 60 C-4.41375 61.08539063 -8.8275 62.17078125 -13.375 63.2890625 C-16.22787686 63.9908356 -19.08074694 64.69263606 -21.93359375 65.39453125 C-26.42848465 66.50042126 -30.92339584 67.60622815 -35.41845703 68.71142578 C-39.04136869 69.60219645 -42.6641672 70.49342606 -46.28689575 71.3849411 C-47.72018689 71.73757921 -49.15351615 72.09006242 -50.58688354 72.44239044 C-57.85474917 74.22900533 -65.11983853 76.02460975 -72.375 77.86230469 C-74.05057983 78.28592789 -74.05057983 78.28592789 -75.76000977 78.71810913 C-77.81859773 79.23985402 -79.87643133 79.76458814 -81.93334961 80.2928772 C-82.83061768 80.52026581 -83.72788574 80.74765442 -84.65234375 80.98193359 C-85.42570068 81.17999603 -86.19905762 81.37805847 -86.99584961 81.5821228 C-89 82 -89 82 -92 82 C-92.13918411 74.26360426 -92.24571344 66.52733873 -92.31087303 58.78997517 C-92.34215173 55.19685372 -92.3845562 51.60459042 -92.45263672 48.01196289 C-92.51796051 44.5429921 -92.55373209 41.07484512 -92.56926346 37.60530663 C-92.58570209 35.64140495 -92.63252186 33.67783361 -92.67977905 31.71443176 C-92.68301081 23.15080971 -92.68301081 23.15080971 -90.88154602 20.11550903 C-87.42247316 16.92794924 -83.17796174 15.96591543 -78.68359375 15.078125 C-77.97008759 14.93187683 -77.25658142 14.78562866 -76.52145386 14.63494873 C-74.16324024 14.15598936 -71.80083891 13.70292912 -69.4375 13.25 C-67.77661551 12.91827149 -66.11605776 12.58490337 -64.45581055 12.25 C-60.88941446 11.53372578 -57.32106085 10.82851245 -53.75097656 10.13085938 C-47.69009636 8.94400771 -41.63796459 7.71544732 -35.5859375 6.484375 C-31.49506675 5.65488747 -27.40388461 4.82694908 -23.3125 4 C-22.31580292 3.79846313 -21.31910583 3.59692627 -20.29220581 3.38928223 C-17.46238383 2.81870242 -14.63174768 2.25237072 -11.80078125 1.6875 C-10.95248749 1.51603455 -10.10419373 1.34456909 -9.23019409 1.16790771 C-6.10644303 0.54800916 -3.19327663 0 0 0 Z " fill="#D97439" transform="translate(149,22)"/>
</svg>
