<?xml version="1.0" encoding="UTF-8" standalone="no"?>
<!-- Created with Inkscape (http://www.inkscape.org/) -->

<svg
   version="1.1"
   id="svg2"
   width="233.28256"
   height="35.016933"
   viewBox="0 0 233.28257 35.016933"
   xmlns="http://www.w3.org/2000/svg"
   xmlns:svg="http://www.w3.org/2000/svg">
  <defs
     id="defs6">
    <clipPath
       clipPathUnits="userSpaceOnUse"
       id="clipPath946">
      <path
         d="M 0,3439.492 H 1366 V 0 H 0 Z"
         id="path944" />
    </clipPath>
  </defs>
  <g
     id="g10"
     transform="matrix(1.3333333,0,0,-1.3333333,-102.58853,4528.4563)">
    <g
       id="g940">
      <g
         id="g942"
         clip-path="url(#clipPath946)">
        <g
           id="g956"
           transform="translate(76.9414,3395.1755)"
           style="fill:#ffffff">
          <path
             d="M 0,0 C 0,0.24 0.066,0.429 0.198,0.567 0.329,0.704 0.486,0.778 0.669,0.79 h 16.428 c 0.263,0 0.46,-0.075 0.592,-0.223 0.131,-0.148 0.197,-0.348 0.197,-0.599 v -4.245 c 0,-0.194 -0.069,-0.379 -0.206,-0.556 -0.137,-0.177 -0.337,-0.265 -0.6,-0.265 H 6.643 v -5.321 h 7.707 c 0.217,0 0.401,-0.06 0.549,-0.18 0.149,-0.12 0.224,-0.312 0.224,-0.576 v -4.102 c 0,-0.195 -0.066,-0.38 -0.198,-0.558 -0.132,-0.177 -0.312,-0.266 -0.54,-0.266 H 6.643 v -7.861 c 0,-0.493 -0.263,-0.739 -0.79,-0.739 H 0.618 C 0.206,-24.644 0,-24.403 0,-23.98 Z"
             style="fill:#ffffff;fill-opacity:1;fill-rule:nonzero;stroke:none"
             id="path958" />
        </g>
        <g
           id="g960"
           transform="translate(102.2776,3380.1045)"
           style="fill:#ffffff">
          <path
             d="M 0,0 C 0.217,0.583 0.438,1.21 0.661,1.88 0.884,2.549 1.104,3.227 1.322,3.914 1.539,4.6 1.759,5.281 1.983,5.956 2.206,6.631 2.426,7.261 2.643,7.844 L 5.27,0 Z M 15.088,-8.857 6.076,14.385 5.647,15.363 C 5.579,15.454 5.476,15.56 5.338,15.68 5.201,15.801 5.035,15.861 4.841,15.861 H 0.446 c -0.091,0 -0.188,-0.02 -0.292,-0.06 -0.103,-0.041 -0.2,-0.095 -0.291,-0.163 -0.092,-0.069 -0.169,-0.144 -0.232,-0.223 -0.063,-0.081 -0.1,-0.155 -0.112,-0.224 l -9.32,-24.134 c -0.092,-0.229 -0.066,-0.401 0.077,-0.515 0.143,-0.115 0.323,-0.172 0.541,-0.172 h 5.063 c 0.435,0 0.727,0.212 0.876,0.636 0.217,0.583 0.437,1.164 0.661,1.742 0.223,0.577 0.443,1.158 0.661,1.742 H 7.192 C 7.41,-6.094 7.627,-6.675 7.844,-7.252 8.062,-7.83 8.285,-8.411 8.514,-8.994 8.594,-9.223 8.705,-9.386 8.849,-9.484 8.992,-9.581 9.195,-9.63 9.458,-9.63 h 4.926 c 0.309,0 0.527,0.072 0.653,0.215 0.126,0.143 0.143,0.329 0.051,0.558"
             style="fill:#ffffff;fill-opacity:1;fill-rule:nonzero;stroke:none"
             id="path962" />
        </g>
        <g
           id="g964"
           transform="translate(136.0757,3394.1113)"
           style="fill:#ffffff">
          <path
             d="M 0,0 C 0.195,-0.115 0.337,-0.263 0.429,-0.446 0.521,-0.629 0.503,-0.847 0.378,-1.099 l -2.901,-4.119 c -0.126,-0.195 -0.261,-0.307 -0.404,-0.335 -0.143,-0.029 -0.317,0.02 -0.523,0.146 -0.561,0.423 -1.179,0.749 -1.854,0.978 -0.675,0.229 -1.39,0.344 -2.146,0.344 -0.938,0 -1.802,-0.178 -2.592,-0.532 -0.789,-0.355 -1.47,-0.841 -2.042,-1.459 -0.573,-0.618 -1.019,-1.34 -1.339,-2.164 -0.321,-0.823 -0.481,-1.705 -0.481,-2.643 0,-0.938 0.16,-1.816 0.481,-2.635 0.32,-0.818 0.766,-1.533 1.339,-2.145 0.572,-0.613 1.253,-1.096 2.042,-1.451 0.79,-0.355 1.654,-0.532 2.592,-0.532 0.756,0 1.477,0.117 2.163,0.352 0.687,0.235 1.31,0.564 1.871,0.987 0.206,0.126 0.378,0.177 0.515,0.155 0.137,-0.024 0.275,-0.127 0.412,-0.309 l 2.935,-4.223 c 0.126,-0.252 0.143,-0.463 0.052,-0.635 -0.092,-0.172 -0.235,-0.315 -0.429,-0.429 -1.076,-0.721 -2.235,-1.279 -3.476,-1.674 -1.242,-0.395 -2.549,-0.592 -3.922,-0.592 -1.214,0 -2.378,0.154 -3.494,0.463 -1.115,0.31 -2.16,0.75 -3.132,1.322 -0.973,0.572 -1.857,1.256 -2.652,2.051 -0.796,0.795 -1.479,1.677 -2.051,2.644 -0.573,0.967 -1.013,2.008 -1.322,3.124 -0.309,1.116 -0.464,2.28 -0.464,3.493 0,1.213 0.155,2.377 0.464,3.493 0.309,1.116 0.749,2.163 1.322,3.141 0.572,0.979 1.255,1.868 2.051,2.669 0.795,0.802 1.679,1.485 2.652,2.052 0.972,0.566 2.017,1.007 3.132,1.322 1.116,0.314 2.28,0.471 3.494,0.471 1.373,0 2.669,-0.191 3.887,-0.575 C -2.223,1.273 -1.076,0.721 0,0"
             style="fill:#ffffff;fill-opacity:1;fill-rule:nonzero;stroke:none"
             id="path966" />
        </g>
        <g
           id="g968"
           transform="translate(168.1206,3380.6406)"
           style="fill:#ffffff">
          <path
             d="m 0,0 c 0,-0.847 0.117,-1.566 0.352,-2.156 0.235,-0.59 0.545,-1.071 0.929,-1.443 0.384,-0.372 0.832,-0.644 1.342,-0.816 0.51,-0.172 1.041,-0.258 1.591,-0.258 0.574,0 1.115,0.1 1.626,0.301 0.51,0.2 0.957,0.498 1.341,0.893 0.384,0.395 0.688,0.885 0.912,1.469 0.223,0.584 0.335,1.254 0.335,2.01 v 14.569 c 0,0.206 0.072,0.383 0.215,0.532 0.143,0.149 0.335,0.223 0.575,0.223 h 5.012 c 0.263,0 0.469,-0.077 0.618,-0.231 0.149,-0.155 0.223,-0.329 0.223,-0.524 V 0.099 c 0,-2.003 -0.295,-3.685 -0.884,-5.047 -0.589,-1.361 -1.382,-2.457 -2.377,-3.287 -0.996,-0.829 -2.149,-1.424 -3.459,-1.785 -1.311,-0.36 -2.686,-0.541 -4.128,-0.541 -1.442,0 -2.821,0.186 -4.137,0.558 -1.316,0.372 -2.472,0.979 -3.468,1.82 -0.995,0.841 -1.788,1.94 -2.377,3.296 -0.589,1.356 -0.884,3.018 -0.884,4.986 v 14.47 c 0,0.195 0.066,0.369 0.197,0.524 0.131,0.154 0.294,0.231 0.488,0.231 h 5.136 c 0.171,0 0.351,-0.071 0.539,-0.214 C -0.094,14.967 0,14.786 0,14.569 Z"
             style="fill:#ffffff;fill-opacity:1;fill-rule:nonzero;stroke:none"
             id="path970" />
        </g>
        <g
           id="g972"
           transform="translate(199.5843,3386.4814)"
           style="fill:#ffffff">
          <path
             d="M 0,0 C -0.114,-0.349 -0.28,-0.664 -0.498,-0.944 -0.715,-1.225 -0.984,-1.459 -1.304,-1.648 -1.625,-1.837 -1.985,-1.954 -2.386,-2 -2.581,-2.023 -2.758,-2.04 -2.918,-2.051 -3.079,-2.063 -3.261,-2.068 -3.467,-2.068 h -3.159 v 6.299 h 2.369 c 0.332,0 0.638,-0.008 0.918,-0.025 0.281,-0.018 0.581,-0.038 0.902,-0.06 0.389,-0.058 0.743,-0.184 1.064,-0.378 0.32,-0.195 0.595,-0.435 0.824,-0.721 C -0.321,2.761 -0.143,2.446 -0.017,2.103 0.109,1.76 0.172,1.416 0.172,1.073 0.172,0.707 0.114,0.349 0,0 m 7.518,-14.874 c -0.126,0.218 -0.229,0.406 -0.309,0.567 l -4.411,8.308 c 0.618,0.354 1.187,0.781 1.708,1.279 0.521,0.497 0.97,1.053 1.347,1.665 0.378,0.612 0.672,1.27 0.884,1.974 0.212,0.704 0.318,1.444 0.318,2.223 0,1.144 -0.22,2.222 -0.661,3.235 C 5.954,5.39 5.35,6.274 4.583,7.029 3.816,7.784 2.918,8.382 1.888,8.823 0.858,9.263 -0.246,9.484 -1.425,9.484 h -11.088 c -0.252,0 -0.441,-0.072 -0.567,-0.215 -0.126,-0.143 -0.189,-0.334 -0.189,-0.575 v -23.962 c 0,-0.252 0.069,-0.438 0.206,-0.558 0.138,-0.12 0.321,-0.181 0.55,-0.181 h 5.098 c 0.526,0 0.789,0.247 0.789,0.739 v 7.741 h 2.781 l 4.171,-7.844 c 0.046,-0.195 0.146,-0.349 0.301,-0.464 0.154,-0.114 0.328,-0.172 0.523,-0.172 h 5.888 c 0.206,0 0.369,0.049 0.489,0.146 0.12,0.098 0.18,0.238 0.18,0.421 0,0.16 -0.063,0.349 -0.189,0.566"
             style="fill:#ffffff;fill-opacity:1;fill-rule:nonzero;stroke:none"
             id="path974" />
        </g>
        <g
           id="g976"
           transform="translate(208.5443,3395.1755)"
           style="fill:#ffffff">
          <path
             d="M 0,0 C 0,0.24 0.065,0.432 0.197,0.575 0.328,0.718 0.513,0.79 0.753,0.79 h 17.03 c 0.252,0 0.446,-0.075 0.584,-0.223 0.137,-0.148 0.206,-0.348 0.206,-0.599 v -4.245 c 0,-0.194 -0.069,-0.379 -0.206,-0.556 -0.138,-0.177 -0.338,-0.265 -0.601,-0.265 H 6.643 v -4.257 h 8.583 c 0.217,0 0.397,-0.051 0.54,-0.154 0.143,-0.104 0.215,-0.275 0.215,-0.515 v -3.708 c 0,-0.161 -0.063,-0.315 -0.189,-0.464 -0.126,-0.148 -0.309,-0.223 -0.549,-0.223 h -8.6 v -4.394 h 11.535 c 0.515,0 0.772,-0.262 0.772,-0.787 v -4.313 c 0,-0.115 -0.046,-0.217 -0.137,-0.308 -0.046,-0.32 -0.281,-0.48 -0.704,-0.48 H 0.753 c -0.228,0 -0.411,0.061 -0.548,0.181 C 0.068,-24.4 0,-24.214 0,-23.962 Z"
             style="fill:#ffffff;fill-opacity:1;fill-rule:nonzero;stroke:none"
             id="path978" />
        </g>
        <g
           id="g980"
           transform="translate(244.8223,3380.7056)"
           style="fill:#ffffff">
          <path
             d="M 0,0 C -0.315,-0.767 -0.75,-1.433 -1.304,-2 -1.86,-2.566 -2.509,-3.024 -3.253,-3.373 -3.997,-3.722 -4.798,-3.931 -5.656,-4 -5.908,-4.023 -6.16,-4.042 -6.411,-4.06 -6.663,-4.077 -6.921,-4.085 -7.184,-4.085 h -1.442 v 13.2 h 2.266 c 0.939,0 1.823,-0.164 2.652,-0.49 0.83,-0.326 1.554,-0.784 2.172,-1.373 C -0.918,6.663 -0.429,5.965 -0.068,5.158 0.292,4.351 0.472,3.467 0.472,2.506 0.472,1.602 0.315,0.766 0,0 M 6.609,5.939 C 6.294,7.038 5.853,8.062 5.287,9.011 4.72,9.961 4.037,10.82 3.236,11.586 2.435,12.353 1.551,13.011 0.584,13.56 c -0.968,0.55 -2.009,0.973 -3.124,1.271 -1.116,0.297 -2.275,0.446 -3.476,0.446 h -8.463 c -0.263,0 -0.461,-0.075 -0.592,-0.223 -0.132,-0.149 -0.197,-0.344 -0.197,-0.584 V -9.51 c 0,-0.298 0.08,-0.492 0.24,-0.583 0.16,-0.092 0.343,-0.138 0.549,-0.138 h 8.463 c 1.201,0 2.363,0.146 3.484,0.438 1.121,0.292 2.166,0.707 3.133,1.245 0.967,0.537 1.848,1.19 2.643,1.956 0.796,0.767 1.479,1.623 2.052,2.567 0.572,0.944 1.012,1.962 1.321,3.055 0.309,1.093 0.464,2.246 0.464,3.459 0,1.201 -0.158,2.352 -0.472,3.45"
             style="fill:#ffffff;fill-opacity:1;fill-rule:nonzero;stroke:none"
             id="path982" />
        </g>
        <g
           id="g984"
           transform="translate(138.6267,3392.8062)">
          <path
             d="M 0,0 C 0,0 0.004,0.308 0.368,0.381 L 0.595,0.079 Z"
             style="fill:#d53a34;fill-opacity:1;fill-rule:nonzero;stroke:none"
             id="path986" />
        </g>
        <g
           id="g988"
           transform="translate(144.3858,3385.5935)">
          <path
             d="m 0,0 -5.516,-1.332 c 0,0 -0.243,-0.091 -0.243,0.344 v 8.401 c 0,0 0.035,0.323 0.412,0.398 l 14.326,2.835 c 0,0 0.55,0.259 0.49,-0.529 V 8.444 Z"
             style="fill:#d53a34;fill-opacity:1;fill-rule:nonzero;stroke:none"
             id="path990" />
        </g>
        <g
           id="g992"
           transform="translate(144.3845,3370.4233)">
          <path
             d="M 0,0 C 0,0 -0.005,-0.594 0.321,-0.113 L 7.642,7.48 c 0,0 0.537,0.335 0.537,1.583 l -8.178,6.212 z"
             style="fill:#ce4f35;fill-opacity:1;fill-rule:nonzero;stroke:none"
             id="path994" />
        </g>
        <g
           id="g996"
           transform="translate(153.8544,3394.0759)">
          <path
             d="m 0,0 0.005,-6.096 -9.474,-2.348 8.178,-6.213 v 4.873 c 0,0 -0.174,0.948 0.527,1.119 l 5.075,1.239 c 0,0 0.732,0.144 0.909,0.841 C 4.804,1.827 7.23,1.487 0,0"
             style="fill:#eadf5f;fill-opacity:1;fill-rule:nonzero;stroke:none"
             id="path998" />
        </g>
        <g
           id="g1000"
           transform="translate(144.3858,3385.6282)">
          <path
             d="m 0,0 -0.001,-9.573 2.246,7.867 z"
             style="fill:#ce4f35;fill-opacity:1;fill-rule:nonzero;stroke:none"
             id="path1002" />
        </g>
        <g
           id="g1004"
           transform="translate(144.3858,3385.6282)">
          <path
             d="m 0,0 v -0.035 l 9.412,2.357 c 0,0 0.061,0.006 0.061,0.078 L 9.469,8.444 1.139,6.768 c 0,0 -1.057,-0.167 -1.133,-0.928 z"
             style="fill:#d97439;fill-opacity:1;fill-rule:nonzero;stroke:none"
             id="path1006" />
        </g>
        <g
           id="g1008"
           transform="translate(144.3838,3370.5688)">
          <path
             d="m 0,0 c 0,0 -0.07,-0.761 0.304,-0.344 l 7.386,7.56 c 0,0 0.713,0.782 0.489,1.634 l -8.178,6.175 z"
             style="fill:#ce4f35;fill-opacity:1;fill-rule:nonzero;stroke:none"
             id="path1010" />
        </g>
        <g
           id="g1012"
           transform="translate(157.723,3386.5422)">
          <path
             d="m 0,0 c 0,0 1.552,0.141 1.424,1.489 l 0.007,5.97 c 0,0 0.346,1.246 -1.72,0.821 l -3.58,-0.75 0.005,-5.959 c 0,0 0.049,-0.18 -0.115,-0.177 l -9.32,-2.333 8.138,-6.184 10e-4,4.873 c 0,0 -0.062,0.975 0.782,1.181 z"
             style="fill:#eadf5f;fill-opacity:1;fill-rule:nonzero;stroke:none"
             id="path1014" />
        </g>
        <g
           id="g1016"
           transform="translate(159.1762,3394.1575)">
          <path
             d="m 0,0 v -6.259 c 0,0 0.177,-1.221 -1.605,-1.438 l -4.481,-1.049 z"
             style="fill:#eadf5f;fill-opacity:1;fill-rule:nonzero;stroke:none"
             id="path1018" />
        </g>
        <g
           id="g1020"
           transform="translate(153.4802,3396.2742)">
          <path
             d="m 0,0 -14.581,-2.879 c 0,0 -0.329,-0.068 -0.272,-0.514 0.056,-0.446 0.215,0 0.215,0 l 0.207,0.146"
             style="fill:#d53a34;fill-opacity:1;fill-rule:nonzero;stroke:none"
             id="path1022" />
        </g>
        <g
           id="g1024"
           transform="translate(153.0519,3396.1843)">
          <path
             d="M 0,0 0.203,0.042 0.29,0.06 0.334,0.07 0.362,0.077 0.375,0.078 0.372,0.068 0.295,0.021 0.116,-0.011 0.007,-0.015 Z"
             style="fill:#d53a34;fill-opacity:1;fill-rule:nonzero;stroke:none"
             id="path1026" />
        </g>
      </g>
    </g>
  </g>
</svg>
